#!OML:ASF E:\acrobat2\Project_11_07_03\Capture day 1\Session 1\Acrobat.ASF
:FULLY-SPECIFIED
:DEGREES
46
root 12.8603 20.5082 9.86771 2.68623 -2.14256 0.821708
lowerback -7.91196 0.213625 -0.216899
upperback 0.860873 0.404234 -1.85413
thorax 5.35138 0.221537 -1.75852
lowerneck 0.747564 -7.09028 -4.78085
upperneck 5.22532 -9.83585 7.74965
head 2.24363 -4.87292 3.14546
rclavicle -7.54139e-015 -1.63003e-014
rhumerus -36.3371 -8.17839 -81.5055
rradius 31.3011
rwrist 3.63108
rhand -4.67644 -38.6751
rfingers 7.12502
rthumb 21.1043 -67.5466
lclavicle -7.54139e-015 -1.63003e-014
lhumerus -30.539 -3.28427 84.2645
lradius 24.5379
lwrist 6.90229
lhand -4.23598 -14.9789
lfingers 7.12502
lthumb 21.5273 13.8448
rfemur -7.47523 11.3593 16.5451
rtibia 24.5938
rfoot -34.7334 -12.8595
rtoes 8.70763
lfemur -16.3905 -3.17862 -14.9661
ltibia 38.3095
lfoot -34.9086 -13.3002
ltoes 2.05373
47
root 12.8648 20.503 9.86338 2.7184 -2.23159 0.683028
lowerback -7.94241 0.235154 -0.0615029
upperback 0.910515 0.418204 -1.83815
thorax 5.4221 0.233294 -1.82794
lowerneck 0.752185 -7.09588 -4.67895
upperneck 5.13133 -9.83556 7.70228
head 2.20203 -4.8728 3.11209
rclavicle -1.20513e-015 -1.74931e-014
rhumerus -36.1063 -8.19287 -81.5577
rradius 31.3167
rwrist 3.56884
rhand -4.56133 -38.713
rfingers 7.12502
rthumb 21.2148 -67.5721
lclavicle -1.20513e-015 -1.74931e-014
lhumerus -30.443 -3.25716 84.2134
lradius 24.2229
lwrist 6.67674
lhand -4.22536 -14.9744
lfingers 7.12502
lthumb 21.5375 13.8481
rfemur -7.49149 11.5321 16.6947
rtibia 24.5098
rfoot -34.7737 -13.0512
rtoes 8.50215
lfemur -16.442 -3.11567 -14.8271
ltibia 38.3586
lfoot -35.0675 -13.4093
ltoes 2.3277
48
root 12.8691 20.4982 9.85853 2.76514 -2.33084 0.469256
lowerback -7.96799 0.2654 0.170871
upperback 0.950723 0.434575 -1.7991
thorax 5.48075 0.248276 -1.91632
lowerneck 0.719231 -7.0898 -4.57883
upperneck 5.07919 -9.82053 7.64388
head 2.1795 -4.86424 3.07399
rclavicle -7.34261e-015 3.02153e-014
rhumerus -35.8878 -8.20266 -81.6041
rradius 31.3104
rwrist 3.51147
rhand -4.48494 -38.6543
rfingers 7.12502
rthumb 21.2882 -67.5051
lclavicle -7.34261e-015 3.02153e-014
lhumerus -30.351 -3.1716 84.1382
lradius 23.9259
lwrist 6.41613
lhand -4.1741 -14.9329
lfingers 7.12502
lthumb 21.5868 13.884
rfemur -7.51667 11.7398 16.9263
rtibia 24.4138
rfoot -34.8219 -13.2218
rtoes 8.45195
lfemur -16.5073 -3.02798 -14.6024
ltibia 38.4179
lfoot -35.2305 -13.5325
ltoes 2.61593
49
root 12.8736 20.494 9.85325 2.82334 -2.43463 0.243043
lowerback -7.9836 0.295224 0.412346
upperback 0.975168 0.448397 -1.75028
thorax 5.51727 0.262077 -1.99986
lowerneck 0.661127 -7.06949 -4.49977
upperneck 5.07619 -9.7889 7.58951
head 2.17827 -4.84661 3.04019
rclavicle 1.81391e-015 -1.55052e-014
rhumerus -35.6966 -8.18597 -81.6485
rradius 31.2923
rwrist 3.43954
rhand -4.48561 -38.5486
rfingers 7.12502
rthumb 21.2876 -67.3995
lclavicle 1.81391e-015 -1.55052e-014
lhumerus -30.2694 -3.01425 84.0399
lradius 23.6349
lwrist 6.11058
lhand -4.09975 -14.8717
lfingers 7.12502
lthumb 21.6582 13.937
rfemur -7.55024 11.9638 17.1688
rtibia 24.3151
rfoot -34.8871 -13.3546
rtoes 8.61917
lfemur -16.5831 -2.93956 -14.3654
ltibia 38.4806
lfoot -35.4187 -13.6181
ltoes 2.80006
50
root 12.8778 20.4905 9.84777 2.88938 -2.53584 0.0538413
lowerback -7.99074 0.318133 0.60657
upperback 0.984174 0.457336 -1.70268
thorax 5.53232 0.27188 -2.05858
lowerneck 0.586204 -7.03921 -4.44072
upperneck 5.11993 -9.74632 7.53636
head 2.19617 -4.82295 3.00969
rclavicle 4.83295e-015 -1.11319e-014
rhumerus -35.5353 -8.14335 -81.6916
rradius 31.2708
rwrist 3.35407
rhand -4.59535 -38.4382
rfingers 7.12502
rthumb 21.1822 -67.3009
lclavicle 4.83295e-015 -1.11319e-014
lhumerus -30.2 -2.7887 83.9235
lradius 23.3468
lwrist 5.76215
lhand -3.99808 -14.785
lfingers 7.12502
lthumb 21.7558 14.0124
rfemur -7.59512 12.1962 17.3683
rtibia 24.2273
rfoot -34.9836 -13.4419
rtoes 9.03356
lfemur -16.6668 -2.86639 -14.1717
ltibia 38.5369
lfoot -35.6409 -13.6244
ltoes 2.7705
51
root 12.8819 20.4877 9.84285 2.95667 -2.62505 -0.0558723
lowerback -7.99967 0.325402 0.707029
upperback 0.984667 0.455037 -1.66453
thorax 5.53831 0.273282 -2.07568
lowerneck 0.498313 -6.99838 -4.41376
upperneck 5.20842 -9.6919 7.48688
head 2.23271 -4.79312 2.98571
rclavicle -1.30825e-014 1.98785e-014
rhumerus -35.3906 -8.07333 -81.7323
rradius 31.2423
rwrist 3.25512
rhand -4.78424 -38.3748
rfingers 7.12502
rthumb 21.0007 -67.2578
lclavicle -1.30825e-014 1.98785e-014
lhumerus -30.1455 -2.51123 83.8025
lradius 23.0686
lwrist 5.41532
lhand -3.87051 -14.6757
lfingers 7.12502
lthumb 21.8783 14.1074
rfemur -7.65035 12.4057 17.4767
rtibia 24.1615
rfoot -35.102 -13.4883
rtoes 9.57336
lfemur -16.7498 -2.8186 -14.0702
ltibia 38.5781
lfoot -35.8885 -13.546
ltoes 2.54781
52
root 12.8861 20.4856 9.83931 3.01674 -2.6947 -0.0809409
lowerback -8.01572 0.31823 0.715094
upperback 0.982081 0.443371 -1.64111
thorax 5.54404 0.26741 -2.05722
lowerneck 0.409686 -6.94767 -4.40394
upperneck 5.33314 -9.62576 7.43093
head 2.28135 -4.75745 2.96272
rclavicle 9.16894e-015 -3.57812e-015
rhumerus -35.2651 -8.00486 -81.7647
rradius 31.2063
rwrist 3.14544
rhand -5.04716 -38.3567
rfingers 7.12502
rthumb 20.7481 -67.2675
lclavicle 9.16894e-015 -3.57812e-015
lhumerus -30.1107 -2.21155 83.6863
lradius 22.7991
lwrist 5.09698
lhand -3.7287 -14.5804
lfingers 7.12502
lthumb 22.0145 14.1868
rfemur -7.70903 12.5739 17.4879
rtibia 24.1224
rfoot -35.2273 -13.5244
rtoes 10.0329
lfemur -16.8201 -2.79723 -14.0671
ltibia 38.6003
lfoot -36.1476 -13.4019
ltoes 2.22248
53
root 12.8903 20.4844 9.83683 3.06502 -2.74535 -0.0500193
lowerback -8.03331 0.30447 0.665177
upperback 0.981229 0.429331 -1.62949
thorax 5.552 0.258784 -2.01871
lowerneck 0.313877 -6.89003 -4.3762
upperneck 5.4874 -9.54978 7.33845
head 2.33711 -4.7167 2.92405
rclavicle 3.35449e-015 -6.75868e-015
rhumerus -35.163 -7.97018 -81.7813
rradius 31.1728
rwrist 3.05158
rhand -5.3791 -38.3181
rfingers 7.12502
rthumb 20.4291 -67.2635
lclavicle 3.35449e-015 -6.75868e-015
lhumerus -30.0905 -1.92729 83.5822
lradius 22.5366
lwrist 4.82416
lhand -3.58574 -14.5234
lfingers 7.12502
lthumb 22.1517 14.2275
rfemur -7.76895 12.7175 17.436
rtibia 24.11
rfoot -35.3513 -13.5832
rtoes 10.3359
lfemur -16.8732 -2.79109 -14.1279
ltibia 38.6044
lfoot -36.3989 -13.2169
ltoes 1.89235
54
root 12.8946 20.484 9.83485 3.10403 -2.77561 0.0211426
lowerback -8.04516 0.287516 0.576997
upperback 0.979777 0.415411 -1.62842
thorax 5.5559 0.249167 -1.96963
lowerneck 0.211987 -6.83015 -4.31266
upperneck 5.65438 -9.46835 7.19201
head 2.39238 -4.67331 2.86071
rclavicle -3.29237e-015 9.14409e-015
rhumerus -35.0914 -7.97383 -81.7791
rradius 31.1485
rwrist 2.99497
rhand -5.73046 -38.2301
rfingers 7.12502
rthumb 20.0914 -67.2113
lclavicle -3.29237e-015 9.14409e-015
lhumerus -30.0897 -1.69896 83.4998
lradius 22.2918
lwrist 4.62091
lhand -3.46595 -14.4849
lfingers 7.12502
lthumb 22.2667 14.2523
rfemur -7.83432 12.8104 17.3368
rtibia 24.1184
rfoot -35.4375 -13.6734
rtoes 10.4018
lfemur -16.9144 -2.78876 -14.2332
ltibia 38.5951
lfoot -36.6211 -13.0236
ltoes 1.66842
55
root 12.8992 20.4839 9.83294 3.13813 -2.78573 0.109438
lowerback -8.04425 0.274032 0.480188
upperback 0.971412 0.407428 -1.63747
thorax 5.54561 0.242248 -1.92546
lowerneck 0.131794 -6.77548 -4.20646
upperneck 5.79871 -9.39061 6.99818
head 2.43103 -4.63261 2.7748
rclavicle -1.81391e-015 1.59028e-015
rhumerus -35.0627 -8.0345 -81.7567
rradius 31.1273
rwrist 2.98916
rhand -6.06062 -38.0853
rfingers 7.12502
rthumb 19.7741 -67.0994
lclavicle -1.81391e-015 1.59028e-015
lhumerus -30.1177 -1.54883 83.4405
lradius 22.0781
lwrist 4.47931
lhand -3.37331 -14.4183
lfingers 7.12502
lthumb 22.3557 14.3083
rfemur -7.90872 12.8294 17.2128
rtibia 24.1394
rfoot -35.4616 -13.7834
rtoes 10.2375
lfemur -16.9505 -2.77985 -14.3562
ltibia 38.5798
lfoot -36.8117 -12.8474
ltoes 1.58535
56
root 12.9044 20.4841 9.83067 3.16955 -2.77899 0.189065
lowerback -8.02807 0.26661 0.403794
upperback 0.956648 0.405623 -1.65167
thorax 5.52042 0.238988 -1.89738
lowerneck 0.0863013 -6.72443 -4.06036
upperneck 5.89963 -9.3145 6.77192
head 2.44484 -4.59385 2.67271
rclavicle -2.68359e-015 8.74653e-015
rhumerus -35.0671 -8.1519 -81.7169
rradius 31.0931
rwrist 3.04465
rhand -6.28821 -37.9246
rfingers 7.12502
rthumb 19.5553 -66.9611
lclavicle -2.68359e-015 8.74653e-015
lhumerus -30.1674 -1.45243 83.3907
lradius 21.9006
lwrist 4.35313
lhand -3.28594 -14.2969
lfingers 7.12502
lthumb 22.4395 14.4195
rfemur -7.98872 12.7892 17.0917
rtibia 24.1658
rfoot -35.4412 -13.8754
rtoes 10.0143
lfemur -16.9854 -2.76013 -14.4677
ltibia 38.565
lfoot -36.9882 -12.6929
ltoes 1.57057
